<mxfile host="app.diagrams.net" modified="2024-02-20T10:23:01.271Z" agent="Mozilla/5.0 (Windows NT 10.0; Win64; x64) AppleWebKit/537.36 (KHTML, like Gecko) Chrome/121.0.0.0 Safari/537.36" version="23.1.5" etag="4acLAdQE32CBkXHIzQ03" type="github">
  <diagram name="Сторінка-1" id="tX5ld_XVv6FIcBt21SCS">
    <mxGraphModel>
      <root>
        <mxCell id="0" />
        <mxCell id="1" parent="0" />
      </root>
    </mxGraphModel>
  </diagram>
</mxfile>
